<svg width="57" height="57" viewBox="0 0 57 57" fill="none" xmlns="http://www.w3.org/2000/svg">
<path d="M38.8192 56.9571C29.0882 56.9808 21.1815 49.1115 21.1589 39.3805V39.3805C21.1364 29.6495 29.1459 21.7414 38.8769 21.7177V21.7177C48.7628 21.6936 56.937 29.6879 56.9598 39.5738L57 56.9127L38.8192 56.9571Z" fill="#D4B963"/>
<path d="M0 23.758C0 10.6368 10.6368 0 23.758 0H24.4877C37.2059 0 47.516 10.3101 47.516 23.0283V23.0283C47.516 35.7465 37.2059 46.0566 24.4877 46.0566H0V23.758Z" fill="white"/>
<mask id="mask0_201_122" style="mask-type:luminance" maskUnits="userSpaceOnUse" x="8" y="6" width="34" height="28">
<path d="M41.1348 6.10693H8.95718V33.4502H41.1348V6.10693Z" fill="white"/>
</mask>
<g mask="url(#mask0_201_122)">
<mask id="mask1_201_122" style="mask-type:luminance" maskUnits="userSpaceOnUse" x="3" y="0" width="42" height="47">
<path d="M44.6411 18.9152L15.9646 0.584229L3.89839 28.1939L32.5745 46.5252L44.6411 18.9152Z" fill="white"/>
</mask>
<g mask="url(#mask1_201_122)">
<mask id="mask2_201_122" style="mask-type:luminance" maskUnits="userSpaceOnUse" x="3" y="0" width="42" height="47">
<path d="M44.6411 18.9152L15.9646 0.584229L3.89839 28.1939L32.5745 46.5252L44.6411 18.9152Z" fill="white"/>
</mask>
<g mask="url(#mask2_201_122)">
<path d="M19.7319 28.9193C19.921 28.9871 20.1214 28.8546 20.1789 28.6224C20.2354 28.3932 20.1258 28.1513 19.9338 28.0812C19.8103 28.0378 19.6956 27.9997 19.5849 27.9687C19.4658 27.9323 19.3478 27.9013 19.2258 27.8716C19.0316 27.8229 18.8395 27.978 18.7992 28.2129C18.7586 28.4473 18.8843 28.6778 19.081 28.7287C19.1906 28.7545 19.2983 28.7833 19.4072 28.8178C19.5237 28.8524 19.6326 28.887 19.7319 28.9193ZM17.115 28.5493C17.3129 28.5391 17.4683 28.3334 17.4569 28.0923C17.4485 27.8526 17.2788 27.6646 17.0791 27.6784C16.5214 27.7103 15.9665 27.8104 15.4205 27.9735C14.8745 28.1371 14.3446 28.3636 13.8367 28.6481C13.6572 28.75 13.5802 29.0097 13.6645 29.2269C13.7484 29.4441 13.9631 29.5371 14.1456 29.4374C14.6154 29.1724 15.1003 28.9659 15.5953 28.8187C16.0875 28.6694 16.599 28.5772 17.115 28.5493ZM12.2624 30.9226C12.4127 30.7626 12.4281 30.4851 12.2939 30.307C12.1617 30.1253 11.9352 30.1084 11.7849 30.2688C11.6761 30.3845 11.5625 30.5104 11.4456 30.6522C11.3379 30.7821 11.2345 30.9101 11.1338 31.04L11.1279 31.0453C10.8813 31.3511 10.6112 31.426 10.403 31.3502C10.3272 31.3236 10.2601 31.2767 10.2048 31.2191C10.1542 31.1601 10.1121 31.0892 10.089 31.0081C10.0252 30.7949 10.074 30.4997 10.314 30.1762L10.3228 30.1643C11.8417 28.1677 13.8272 26.9245 15.9259 26.5083C18.0242 26.0926 20.2332 26.5021 22.1999 27.8078C22.2882 27.8645 22.3795 27.9314 22.4781 27.9988C22.5565 28.0533 22.6459 28.1238 22.75 28.2036C22.9193 28.3339 23.1399 28.2718 23.2476 28.0671C23.3554 27.8623 23.3059 27.592 23.1348 27.4652C23.0494 27.4014 22.9541 27.3274 22.8427 27.2476C22.7518 27.1802 22.6532 27.1129 22.5448 27.0437C20.4311 25.6397 18.0612 25.1978 15.8104 25.6441C13.5567 26.0891 11.4251 27.4244 9.79107 29.5682C9.7852 29.573 9.78227 29.5801 9.77934 29.5868C9.3363 30.1824 9.26557 30.8042 9.41215 31.2953C9.47482 31.5116 9.58219 31.6999 9.71961 31.8537C9.8552 32.0026 10.0179 32.1152 10.1971 32.1812C10.6361 32.3381 11.177 32.2202 11.6318 31.6631C11.6395 31.6547 11.6468 31.6463 11.6541 31.6379C11.7505 31.5093 11.8524 31.3848 11.9498 31.2705C12.0429 31.1574 12.1474 31.0435 12.2624 30.9226ZM26.5124 29.3856C26.6637 29.6324 26.6732 29.8948 26.5988 30.0987C26.5666 30.1886 26.516 30.2711 26.4574 30.3304C26.4013 30.3921 26.3339 30.4373 26.2599 30.4652C26.0869 30.5268 25.867 30.4612 25.6541 30.1882C25.5336 30.0051 25.4027 29.8199 25.2617 29.6329C25.1235 29.4472 24.9824 29.2686 24.8355 29.0953C24.6944 28.9255 24.4661 28.93 24.3243 29.1041C24.1868 29.2765 24.1905 29.5526 24.3316 29.7224C24.4686 29.885 24.6013 30.0495 24.7281 30.2188C24.8505 30.381 24.9744 30.5574 25.1008 30.7439C25.1092 30.7581 25.1191 30.7692 25.1305 30.7852C25.5563 31.3312 26.0451 31.4491 26.4622 31.305C26.6395 31.2421 26.8019 31.1295 26.9389 30.9828C27.0745 30.8401 27.1833 30.658 27.2592 30.459C27.434 29.9834 27.4234 29.3895 27.0899 28.8582C27.084 28.8457 27.0771 28.8369 27.0716 28.8245C26.4325 27.8641 25.6963 27.0092 24.8842 26.2695C24.0732 25.5346 23.1897 24.9168 22.2468 24.4422C21.6576 24.1452 21.0614 23.905 20.4567 23.7264C19.8363 23.5416 19.2166 23.4149 18.5955 23.3488C18.3965 23.3275 18.2213 23.503 18.2041 23.7433C18.1865 23.9839 18.3342 24.1975 18.5328 24.2188C19.1224 24.2817 19.7091 24.401 20.2852 24.5703C20.8594 24.7431 21.4227 24.9665 21.9735 25.2435C22.8588 25.6902 23.6929 26.2717 24.4566 26.9631C25.2177 27.6527 25.9088 28.4611 26.5127 29.3683L26.5124 29.3856ZM10.1341 24.6562C10.1399 24.6514 10.1502 24.6447 10.1561 24.6394C11.8637 23.2801 13.7781 22.4332 15.7536 22.1154C17.7321 21.799 19.7681 22.0188 21.7103 22.7966L21.8349 22.8454C21.8507 22.8511 21.8507 22.8511 21.9581 22.8976C22.1457 22.9779 22.3516 22.8578 22.418 22.6308C22.4843 22.4039 22.385 22.1549 22.1974 22.0746C22.1728 22.0636 22.1658 22.0636 22.0669 22.0223L21.9335 21.9678C19.8869 21.1453 17.7384 20.9157 15.6543 21.2481C13.5747 21.5791 11.5552 22.474 9.75809 23.9037C9.14208 24.3531 8.95115 24.9731 9.01015 25.5409C9.03324 25.7629 9.09737 25.9761 9.19191 26.1604C9.28536 26.3479 9.40776 26.5101 9.54994 26.6364C9.91346 26.9573 10.3983 27.0508 10.841 26.7065C10.8512 26.6998 10.8585 26.6914 10.8688 26.6847C11.1928 26.4104 11.5299 26.1578 11.8762 25.9247C12.2287 25.6862 12.5878 25.4744 12.9569 25.2816C13.1405 25.1872 13.2262 24.9328 13.1482 24.7108C13.0697 24.4887 12.8594 24.385 12.6758 24.4794C12.2852 24.6802 11.9011 24.9071 11.5266 25.1624C11.1642 25.4075 10.805 25.6769 10.4576 25.9712L10.4558 25.9747C10.2964 26.0979 10.1165 26.0581 9.97722 25.934C9.912 25.8746 9.8541 25.7979 9.80829 25.711C9.76505 25.6259 9.73646 25.5324 9.72547 25.4327C9.70238 25.1841 9.80756 24.8938 10.1341 24.6562ZM11.7069 18.8438L11.7153 18.8407C13.2324 18.1763 14.8152 17.7796 16.4103 17.6556C18.0125 17.5319 19.6296 17.6826 21.2101 18.1098C21.4901 18.1874 21.7803 18.2756 22.083 18.3762C22.3813 18.479 22.6712 18.5845 22.9435 18.6966C23.1326 18.7733 23.3356 18.6514 23.4019 18.4245C23.4653 18.1958 23.3645 17.9503 23.1769 17.8701C22.8702 17.7446 22.5689 17.6316 22.2791 17.5346C21.9892 17.4379 21.6865 17.3458 21.3673 17.2567C19.7183 16.8117 18.0344 16.6539 16.3671 16.7847C14.7045 16.9141 13.0547 17.3298 11.4709 18.0221C11.4621 18.0252 11.4577 18.0269 11.4489 18.0301C10.8226 18.3186 10.554 18.8752 10.5346 19.4372C10.5276 19.6619 10.5595 19.8813 10.6266 20.0874C10.6936 20.2934 10.7941 20.4814 10.9212 20.6334C10.9311 20.644 10.9381 20.6529 10.948 20.6635C11.2704 21.0287 11.7395 21.1918 12.2599 20.9285C12.7725 20.6994 13.2958 20.5044 13.8243 20.3475C14.3545 20.1875 14.8954 20.0608 15.4487 19.973C15.6455 19.9398 15.7855 19.7199 15.758 19.482C15.7309 19.2435 15.5492 19.0747 15.352 19.1075C14.7888 19.2023 14.22 19.3335 13.6524 19.5046C13.0976 19.6712 12.5523 19.8746 12.0136 20.1131C12.0048 20.1162 11.992 20.121 11.9817 20.1277C11.7688 20.2389 11.5764 20.1778 11.4478 20.0382C11.4434 20.0311 11.4364 20.0222 11.4306 20.0187C11.3727 19.9504 11.3269 19.864 11.2965 19.774C11.2679 19.6805 11.2525 19.5826 11.2558 19.4828C11.2664 19.2333 11.3965 18.9856 11.7069 18.8438ZM10.9322 13.6238C10.2719 13.8729 9.94754 14.3897 9.87828 14.9241C9.84933 15.1573 9.86656 15.3935 9.92885 15.6102C9.98859 15.8247 10.0916 16.0233 10.2271 16.189C10.5617 16.5932 11.0967 16.798 11.7212 16.5303L11.7256 16.529C12.77 16.119 13.8367 15.8252 14.913 15.643C16.0193 15.4586 17.1414 15.3895 18.2664 15.4467C18.4669 15.4555 18.6321 15.2698 18.6424 15.0292C18.6497 14.7863 18.4962 14.5869 18.2972 14.574C17.1359 14.5164 15.9695 14.5873 14.8148 14.7814C13.6953 14.9707 12.5864 15.2774 11.5042 15.6984C11.4954 15.7015 11.491 15.7033 11.4823 15.7064L11.4779 15.7082L11.4342 15.7246C11.1334 15.8367 10.8882 15.7463 10.7427 15.5694C10.6848 15.5016 10.6416 15.4165 10.616 15.3248C10.5914 15.2388 10.5819 15.144 10.5932 15.0589C10.6222 14.8258 10.7941 14.5909 11.1535 14.4544L11.1576 14.4526C11.5504 14.2975 11.9517 14.1565 12.357 14.0311C12.7637 13.9026 13.1727 13.7936 13.5762 13.6978C13.7719 13.6509 13.9001 13.4239 13.8613 13.1868C13.8224 12.9502 13.6348 12.795 13.4391 12.842C13.0111 12.9435 12.5904 13.0543 12.1748 13.1864C11.7608 13.3149 11.3467 13.4607 10.9322 13.6238ZM31.4661 30.9669C31.4687 30.9775 31.4741 30.9899 31.4796 31.0023C31.7072 31.5758 31.6999 31.9685 31.5731 32.1834C31.5313 32.2539 31.48 32.3049 31.4199 32.3417C31.3558 32.3802 31.2788 32.3971 31.2022 32.3971C30.9846 32.3944 30.7548 32.2433 30.6232 31.9339C30.0131 30.0557 29.1398 28.3361 28.0515 26.85C26.9602 25.3622 25.6523 24.1022 24.1802 23.1436C24.0033 23.0302 23.7848 23.1117 23.6929 23.3222C23.5994 23.5363 23.6639 23.7982 23.8409 23.9112C25.236 24.8207 26.4742 26.0142 27.5135 27.4293C28.5498 28.8422 29.3799 30.4767 29.9574 32.2632C29.9629 32.2845 29.9724 32.304 29.9794 32.3217C30.2432 32.9542 30.7328 33.2626 31.1978 33.2684C31.384 33.2679 31.5683 33.2223 31.7347 33.1257C31.9055 33.0273 32.0583 32.8779 32.1704 32.6803C32.4299 32.2278 32.4951 31.5275 32.1323 30.6203C31.7922 29.6519 31.3895 28.7279 30.9322 27.8526C30.4679 26.9684 29.9435 26.1299 29.3659 25.3458C29.2322 25.1677 29.0057 25.1508 28.8584 25.3126C28.7111 25.4744 28.6972 25.7483 28.8309 25.9269C29.3788 26.6697 29.8793 27.471 30.3257 28.3215C30.7603 29.1648 31.1451 30.0464 31.4661 30.9669ZM36.0797 30.9447C35.7855 29.8381 35.4271 28.77 35.0134 27.7457C34.5908 26.7073 34.1057 25.7039 33.5589 24.7498C33.4457 24.549 33.221 24.5029 33.0598 24.6381C32.8971 24.7768 32.8557 25.0463 32.9678 25.2417C33.4893 26.1533 33.955 27.1177 34.3677 28.1282C34.7711 29.1188 35.1141 30.1461 35.3934 31.2035C35.3959 31.2226 35.4029 31.2403 35.4069 31.2563C35.5744 31.7828 35.5319 32.1396 35.3882 32.335C35.3391 32.405 35.2776 32.4542 35.2079 32.4799C35.135 32.5132 35.054 32.5229 34.9749 32.5123C34.7616 32.4822 34.5498 32.2982 34.4439 31.9477L34.441 31.937C34.3618 31.617 34.2783 31.3072 34.187 31.0063C34.0961 30.6965 33.9979 30.3863 33.8997 30.0849C33.8242 29.8647 33.6124 29.7561 33.4303 29.8469C33.2452 29.9364 33.1584 30.1939 33.2335 30.4147C33.3321 30.7072 33.4262 31.0014 33.5116 31.2988C33.5999 31.598 33.6809 31.8971 33.7561 32.1923C33.7601 32.2083 33.7641 32.2242 33.77 32.2366C33.9822 32.9373 34.4329 33.3096 34.8935 33.3743C35.0852 33.404 35.279 33.3778 35.4553 33.3007C35.6356 33.2218 35.8027 33.0902 35.9332 32.9085C36.2355 32.4923 36.3608 31.8218 36.0797 30.9447ZM39.3071 28.848L39.3016 28.8356C39.2067 28.5098 39.114 28.2036 39.0169 27.9164C38.9117 27.5973 38.8051 27.2817 38.6937 26.9768C38.6141 26.7579 38.3994 26.6559 38.2184 26.7525C38.0377 26.8487 37.9534 27.1084 38.0329 27.3269C38.1443 27.6323 38.2455 27.9354 38.3437 28.2368C38.4434 28.5435 38.5361 28.8409 38.6204 29.1245C38.6229 29.1436 38.6299 29.1613 38.6339 29.1773C38.8556 29.831 38.8226 30.2826 38.6695 30.5246C38.6233 30.5968 38.5658 30.6527 38.5016 30.6823C38.436 30.7156 38.3638 30.7222 38.2891 30.7098C38.0817 30.6744 37.8677 30.4714 37.7405 30.0765L37.7394 30.0712C37.211 28.1304 36.4957 26.2916 35.6195 24.5787C34.7378 22.8538 33.689 21.2605 32.4969 19.8361C32.3555 19.6663 32.129 19.6672 31.9886 19.8378C31.8483 20.0089 31.8487 20.2828 31.9901 20.4525C33.1397 21.8322 34.1548 23.3688 35.006 25.0387C35.85 26.6914 36.5404 28.4704 37.0527 30.3477C37.0567 30.3637 37.0593 30.3739 37.0648 30.3863C37.2938 31.1158 37.7412 31.5031 38.1876 31.5767C38.3847 31.6099 38.5848 31.5789 38.7655 31.4912C38.9461 31.4034 39.1107 31.2527 39.2386 31.052C39.5402 30.5866 39.6424 29.835 39.3071 28.848ZM14.7983 8.17785C14.1412 8.25275 13.7099 8.68797 13.53 9.19986C13.4567 9.40905 13.4237 9.63507 13.4355 9.85889C13.4472 10.0831 13.5036 10.3047 13.6084 10.4993C13.8396 10.939 14.2944 11.2518 14.9797 11.2217C14.9969 11.2239 15.0156 11.2226 15.0343 11.2213L15.0504 11.2182L15.0662 11.2151C15.0779 11.2137 15.0922 11.2142 15.1054 11.2093C15.9812 11.0936 16.8644 11.0444 17.7537 11.0564C18.6574 11.0688 19.564 11.1495 20.4651 11.2926C21.2625 11.4229 22.0563 11.6033 22.8361 11.8324C23.6218 12.0651 24.3917 12.3501 25.1466 12.678C25.3327 12.7618 25.5413 12.6435 25.6076 12.4166C25.6768 12.1914 25.579 11.9388 25.3914 11.8586C24.6083 11.5124 23.8134 11.2253 23.0065 10.9833C22.201 10.7466 21.3842 10.56 20.5593 10.4257C19.6322 10.2746 18.6966 10.1931 17.757 10.1798C16.849 10.1687 15.9354 10.221 15.0248 10.3406L15.0134 10.3424C14.5839 10.381 14.3267 10.2343 14.2164 10.0273C14.1786 9.95462 14.1585 9.87529 14.153 9.79684C14.1486 9.71441 14.1618 9.62577 14.1922 9.53935C14.2776 9.29382 14.5055 9.08153 14.8628 9.04075C14.8701 9.04075 14.8774 9.0412 14.8862 9.03765C15.3044 8.98269 15.724 8.94192 16.1446 8.91489C16.5767 8.88652 16.9974 8.86835 17.406 8.86924C17.6039 8.86746 17.7647 8.67467 17.7651 8.4318C17.7636 8.19248 17.6013 7.99614 17.4034 7.99747C16.9574 7.99925 16.5239 8.01387 16.1062 8.04268C15.6738 8.07104 15.2428 8.11315 14.8111 8.17298L14.7983 8.17785ZM40.1712 22.7106C40.1767 22.723 40.1822 22.7354 40.1877 22.7478C40.4237 23.1857 40.4442 23.5474 40.3489 23.7911C40.3156 23.8758 40.265 23.9498 40.2064 24.0003C40.1474 24.0513 40.0792 24.0823 40.0037 24.096C39.8124 24.124 39.5863 24.0149 39.387 23.7109C38.4206 21.5694 37.2462 19.587 35.902 17.8089C34.5421 16.0082 33.0052 14.4118 31.3224 13.0579C31.1575 12.9258 30.9325 12.9812 30.8233 13.1806C30.7141 13.3801 30.7599 13.6522 30.9248 13.7843C32.5567 15.0966 34.0481 16.646 35.3685 18.3952C36.6829 20.1321 37.8252 22.0631 38.7636 24.1514C38.7721 24.174 38.7845 24.1953 38.7974 24.217C39.1744 24.8158 39.6629 25.0263 40.0931 24.9612C40.2855 24.9297 40.4691 24.8442 40.6234 24.7085C40.7802 24.5747 40.9063 24.3948 40.9943 24.1771C41.191 23.6852 41.1819 23.0124 40.7986 22.286C39.542 19.5883 37.975 17.1339 36.1611 14.9942C34.3369 12.8434 32.2646 11.0107 29.9959 9.56062C29.1996 9.05139 28.3794 8.58914 27.5366 8.1783C26.6982 7.76613 25.8399 7.40714 24.9722 7.104C24.7827 7.03619 24.5822 7.1687 24.5247 7.40094C24.4683 7.63007 24.5778 7.87249 24.7702 7.94207C25.6149 8.23946 26.4475 8.59047 27.2658 8.99023C28.0742 9.38777 28.8745 9.83717 29.662 10.3406C31.871 11.7527 33.8894 13.5334 35.6583 15.6177C37.4232 17.695 38.9465 20.082 40.1712 22.7106ZM23.0717 7.41733C23.2641 7.46963 23.4576 7.31939 23.5008 7.08671C23.5444 6.85403 23.4202 6.62003 23.2275 6.56773C22.9589 6.49726 22.6888 6.43078 22.4198 6.36918C22.1307 6.30359 21.8606 6.24553 21.6074 6.19855C21.4117 6.16177 21.2237 6.32442 21.1933 6.56108C21.1629 6.79775 21.2974 7.02466 21.493 7.06145C21.7763 7.11463 22.0383 7.16737 22.2842 7.22277C22.5499 7.2826 22.8101 7.34731 23.0717 7.41733ZM29.1871 12.5056C29.3626 12.6222 29.5792 12.5442 29.6756 12.3319C29.772 12.1196 29.7075 11.8577 29.5319 11.7411C28.1042 10.7892 26.6069 10.0127 25.063 9.4188C23.5162 8.82314 21.9225 8.4092 20.3065 8.18893C20.1855 8.17298 20.0444 8.15348 19.8847 8.13531C19.7073 8.11492 19.5673 8.1003 19.4622 8.09054C19.2635 8.06927 19.0895 8.24965 19.0722 8.49031C19.0547 8.73096 19.2038 8.94103 19.4028 8.96231C19.5743 8.97915 19.711 8.99156 19.8147 9.00485C19.933 9.01859 20.0683 9.03455 20.2225 9.05804C21.7968 9.27387 23.3458 9.6723 24.8424 10.2493C26.3434 10.8246 27.7979 11.582 29.1871 12.5056ZM37.1443 25.1163C37.2388 25.3268 37.4613 25.4026 37.632 25.2869C37.8061 25.173 37.8717 24.9058 37.7731 24.697C36.6041 22.1172 35.1057 19.7816 33.3423 17.7757C31.5921 15.7826 29.5785 14.1158 27.3655 12.8558C27.1841 12.7529 26.9715 12.8465 26.885 13.061C26.8 13.2803 26.8777 13.5374 27.0547 13.6415C29.2021 14.8687 31.1517 16.4815 32.8483 18.4139C34.5593 20.355 36.0101 22.6162 37.1443 25.1163ZM30.4503 18.7795C30.6064 18.9324 30.8321 18.9 30.9567 18.7148C31.0831 18.526 31.0564 18.253 30.9032 18.1023C30.7346 17.937 30.5514 17.7624 30.3587 17.586C30.1809 17.4242 29.9937 17.2602 29.7973 17.0905C29.6353 16.9518 29.4092 17.0014 29.2945 17.1973C29.1794 17.3932 29.2205 17.6666 29.3828 17.8058C29.5591 17.9538 29.7364 18.1156 29.9226 18.2831C30.0901 18.4342 30.2659 18.6 30.4503 18.7795ZM27.6531 16.4749C27.8272 16.595 28.0463 16.5188 28.1442 16.3118C28.2435 16.1017 28.1805 15.8362 28.0093 15.7179C26.8975 14.9543 25.7311 14.3148 24.535 13.8104C23.333 13.3025 22.0951 12.9262 20.832 12.6842C19.9528 12.5149 19.0697 12.4143 18.1865 12.3798C17.2993 12.3465 16.4136 12.3767 15.5294 12.4782C15.3297 12.5008 15.1856 12.7131 15.2043 12.9546C15.2226 13.1961 15.3985 13.3703 15.5983 13.3482C16.4506 13.2524 17.3074 13.2218 18.1631 13.252C19.0173 13.2861 19.8733 13.3827 20.7191 13.5436C21.9364 13.7745 23.1337 14.1424 24.2986 14.6352C25.4559 15.1276 26.5853 15.7436 27.6531 16.4749ZM31.6739 23.2314C31.8032 23.4109 32.0312 23.433 32.1814 23.273C32.3302 23.1166 32.3481 22.8409 32.2159 22.6592C31.4291 21.569 30.5613 20.5638 29.6195 19.6614C28.6832 18.7626 27.6784 17.9702 26.6168 17.2917C25.7296 16.7244 24.8029 16.2382 23.8442 15.8416C22.9486 15.4679 22.0332 15.1741 21.1028 14.9636L21.0954 14.9632C20.9818 14.9392 20.8825 14.9157 20.7993 14.8976C20.6813 14.875 20.582 14.8515 20.5029 14.8404C20.3072 14.8036 20.1192 14.9663 20.0888 15.2029C20.0584 15.4396 20.1929 15.6669 20.3885 15.7037C20.5036 15.7241 20.6 15.7463 20.6747 15.7587C20.7785 15.7808 20.8664 15.7968 20.9426 15.815L20.9452 15.8167L20.9584 15.8203C21.8584 16.025 22.7426 16.3074 23.6049 16.6646C24.5163 17.0439 25.4101 17.5137 26.2749 18.0664C27.305 18.725 28.2739 19.4904 29.1692 20.3493C30.0816 21.2109 30.9182 22.1783 31.6739 23.2314ZM32.3511 28.1814C32.4482 28.3937 32.6677 28.4677 32.8403 28.3485C33.0158 28.231 33.077 27.9651 32.9784 27.7564C32.4042 26.5061 31.7329 25.3352 30.9703 24.256C30.2066 23.172 29.3527 22.1845 28.4293 21.307C28.2717 21.1581 28.046 21.19 27.9254 21.3824C27.8019 21.5729 27.8287 21.8459 27.9877 21.9918C28.8756 22.8334 29.6913 23.7831 30.4243 24.8211C31.1513 25.8555 31.7988 26.9803 32.3511 28.1814ZM26.3497 20.6183C26.5208 20.7451 26.7399 20.6777 26.8451 20.4712C26.9499 20.2642 26.8942 19.9992 26.7234 19.8724C26.4611 19.6783 26.1862 19.489 25.8993 19.3016C25.6182 19.1172 25.3357 18.9452 25.0528 18.7822C24.8714 18.6798 24.6588 18.7733 24.5724 18.9873C24.4873 19.2067 24.565 19.4642 24.742 19.5684C25.022 19.7297 25.2935 19.8941 25.5574 20.0674C25.8183 20.2385 26.0821 20.4206 26.3497 20.6183ZM27.3955 24.2321C27.5458 24.3899 27.7744 24.3682 27.902 24.1847C28.0324 24.003 28.0145 23.7269 27.8627 23.5722C27.4138 23.1042 26.9411 22.6654 26.4519 22.2643C25.9612 21.8579 25.4515 21.4878 24.9289 21.1541C24.4096 20.8217 23.8754 20.5243 23.3242 20.2651C22.7775 20.0036 22.2172 19.7824 21.6459 19.5936C20.9628 19.3689 20.2727 19.2019 19.5831 19.0924C18.8865 18.9825 18.1843 18.9266 17.4822 18.9284C17.2818 18.928 17.1205 19.1208 17.1205 19.3636C17.1201 19.6065 17.2799 19.8011 17.4804 19.8015C18.1491 19.8006 18.8194 19.8538 19.486 19.9575C20.1511 20.0648 20.8096 20.2208 21.4568 20.4357C21.9965 20.613 22.5338 20.8284 23.0578 21.0748C23.5774 21.323 24.089 21.6062 24.591 21.9271C25.0964 22.2501 25.5834 22.6056 26.0459 22.985C26.5193 23.3714 26.9693 23.7871 27.3955 24.2321ZM16.5258 24.2161C16.724 24.1971 16.871 23.9866 16.8552 23.7468C16.8394 23.507 16.6654 23.3293 16.4671 23.3484C16.1992 23.3759 15.9259 23.4175 15.6518 23.4676C15.378 23.5177 15.1098 23.5802 14.8456 23.6497C14.6513 23.702 14.5286 23.9329 14.5718 24.1678C14.6151 24.4032 14.8056 24.5516 15.0002 24.4993C15.2571 24.4293 15.5077 24.3735 15.7613 24.3278C16.0094 24.2791 16.2656 24.2441 16.5258 24.2161Z" fill="#C21C21"/>
</g>
</g>
</g>
</svg>
