<svg width="60" height="60" viewBox="0 0 60 60" fill="none" xmlns="http://www.w3.org/2000/svg">
<path d="M40.8623 59.9548C30.6191 59.9798 22.2962 51.6963 22.2725 41.4531V41.4531C22.2488 31.21 30.6798 22.8857 40.923 22.8607V22.8607C51.3293 22.8354 59.9336 31.2504 59.9577 41.6567L59.9999 59.9082L40.8623 59.9548Z" fill="#D4B963"/>
<path d="M0 25.0084C0 11.1966 11.1967 0 25.0084 0H25.7765C39.1641 0 50.0168 10.8528 50.0168 24.2403V24.2403C50.0168 37.6279 39.1641 48.4807 25.7765 48.4807H0V25.0084Z" fill="#C11C21"/>
<mask id="mask0_183_116" style="mask-type:luminance" maskUnits="userSpaceOnUse" x="9" y="6" width="35" height="30">
<path d="M43.2998 6.42847H9.42866V35.2109H43.2998V6.42847Z" fill="white"/>
</mask>
<g mask="url(#mask0_183_116)">
<mask id="mask1_183_116" style="mask-type:luminance" maskUnits="userSpaceOnUse" x="4" y="0" width="43" height="49">
<path d="M46.991 19.9105L16.8052 0.614746L4.10389 29.6775L34.2893 48.9737L46.991 19.9105Z" fill="white"/>
</mask>
<g mask="url(#mask1_183_116)">
<mask id="mask2_183_116" style="mask-type:luminance" maskUnits="userSpaceOnUse" x="4" y="0" width="43" height="49">
<path d="M46.991 19.9105L16.8052 0.614746L4.10389 29.6775L34.2893 48.9737L46.991 19.9105Z" fill="white"/>
</mask>
<g mask="url(#mask2_183_116)">
<path d="M20.7704 30.4411C20.9695 30.5125 21.1805 30.373 21.241 30.1285C21.3004 29.8873 21.1851 29.6326 20.983 29.5589C20.853 29.5132 20.7322 29.4731 20.6158 29.4404C20.4904 29.4022 20.3662 29.3695 20.2377 29.3383C20.0333 29.2869 19.8312 29.4502 19.7887 29.6975C19.7459 29.9443 19.8782 30.1869 20.0854 30.2405C20.2007 30.2676 20.3141 30.2979 20.4287 30.3343C20.5513 30.3707 20.6659 30.407 20.7704 30.4411ZM18.0159 30.0516C18.2242 30.0408 18.3877 29.8244 18.3758 29.5706C18.3669 29.3182 18.1883 29.1204 17.9781 29.1349C17.391 29.1684 16.8069 29.2739 16.2322 29.4456C15.6574 29.6177 15.0997 29.8561 14.565 30.1556C14.376 30.2629 14.295 30.5363 14.3837 30.7649C14.4721 30.9935 14.6981 31.0914 14.8902 30.9865C15.3847 30.7075 15.8951 30.4901 16.4162 30.3352C16.9342 30.178 17.4727 30.081 18.0159 30.0516ZM12.9079 32.5498C13.066 32.3814 13.0822 32.0893 12.941 31.9018C12.8018 31.7105 12.5634 31.6928 12.4053 31.8617C12.2907 31.9834 12.1711 32.1159 12.0481 32.2652C11.9346 32.4019 11.8259 32.5367 11.7198 32.6734L11.7136 32.679C11.454 33.0009 11.1697 33.0797 10.9506 33C10.8708 32.972 10.8002 32.9225 10.7419 32.8619C10.6887 32.7998 10.6443 32.7252 10.62 32.6398C10.5529 32.4154 10.6042 32.1047 10.8569 31.7642L10.8661 31.7516C12.465 29.6499 14.555 28.3413 16.7641 27.9032C18.9729 27.4656 21.2981 27.8967 23.3684 29.2711C23.4614 29.3308 23.5574 29.4012 23.6612 29.4721C23.7437 29.5295 23.8378 29.6037 23.9474 29.6877C24.1256 29.8248 24.3578 29.7595 24.4712 29.544C24.5846 29.3285 24.5326 29.0439 24.3524 28.9105C24.2625 28.8433 24.1623 28.7654 24.045 28.6814C23.9493 28.6105 23.8456 28.5396 23.7314 28.4668C21.5064 26.9889 19.0118 26.5237 16.6426 26.9935C14.2703 27.4619 12.0265 28.8675 10.3064 31.1241C10.3003 31.1292 10.2972 31.1367 10.2941 31.1437C9.82773 31.7707 9.75328 32.4252 9.90758 32.9421C9.97354 33.1698 10.0866 33.3681 10.2312 33.5299C10.3739 33.6867 10.5452 33.8052 10.7338 33.8747C11.196 34.0398 11.7653 33.9157 12.244 33.3293C12.2521 33.3205 12.2598 33.3116 12.2675 33.3027C12.369 33.1674 12.4762 33.0364 12.5788 32.916C12.6768 32.797 12.7868 32.6771 12.9079 32.5498ZM27.9078 30.9319C28.0671 31.1917 28.0771 31.4679 27.9988 31.6825C27.9649 31.7772 27.9117 31.864 27.8499 31.9265C27.7909 31.9914 27.7199 32.0389 27.642 32.0683C27.46 32.1332 27.2285 32.0641 27.0044 31.7768C26.8775 31.5841 26.7398 31.3891 26.5913 31.1922C26.4458 30.9967 26.2973 30.8087 26.1426 30.6263C25.9941 30.4476 25.7538 30.4523 25.6045 30.6356C25.4599 30.8171 25.4637 31.1078 25.6123 31.2864C25.7565 31.4577 25.8962 31.6307 26.0296 31.8089C26.1585 31.9797 26.2888 32.1654 26.4219 32.3618C26.4308 32.3767 26.4412 32.3884 26.4532 32.4052C26.9014 32.9799 27.416 33.104 27.855 32.9524C28.0417 32.8861 28.2125 32.7676 28.3568 32.6132C28.4995 32.463 28.6141 32.2713 28.6939 32.0618C28.8779 31.5612 28.8668 30.9361 28.5157 30.3767C28.5096 30.3637 28.5022 30.3543 28.4964 30.3413C27.8237 29.3303 27.0488 28.4304 26.194 27.6518C25.3403 26.8783 24.4103 26.228 23.4178 25.7283C22.7975 25.4158 22.1699 25.1629 21.5334 24.9749C20.8804 24.7804 20.2281 24.6469 19.5743 24.5774C19.3648 24.555 19.1804 24.7398 19.1623 24.9926C19.1438 25.2459 19.2992 25.4708 19.5083 25.4932C20.1289 25.5594 20.7465 25.6849 21.3529 25.8631C21.9574 26.0451 22.5502 26.2802 23.13 26.5718C24.062 27.042 24.9399 27.6541 25.7438 28.3819C26.545 29.1078 27.2725 29.9587 27.9082 30.9137L27.9078 30.9319ZM10.6675 25.9537C10.6737 25.9485 10.6845 25.9415 10.6906 25.9359C12.4882 24.5051 14.5033 23.6136 16.5828 23.2791C18.6654 22.946 20.8086 23.1774 22.853 23.9961L22.9842 24.0475C23.0008 24.0535 23.0008 24.0535 23.1138 24.1025C23.3113 24.1869 23.5281 24.0605 23.5979 23.8217C23.6677 23.5828 23.5632 23.3206 23.3657 23.2362C23.3399 23.2245 23.3325 23.2245 23.2284 23.1811L23.088 23.1237C20.9336 22.2579 18.672 22.0162 16.4783 22.3661C14.2892 22.7146 12.1634 23.6565 10.2717 25.1615C9.62329 25.6346 9.42232 26.2872 9.48442 26.8848C9.50872 27.1186 9.57623 27.3429 9.67575 27.537C9.77411 27.7344 9.90295 27.9051 10.0526 28.0381C10.4353 28.3758 10.9456 28.4743 11.4116 28.1118C11.4224 28.1048 11.4301 28.0959 11.4409 28.0889C11.7819 27.8001 12.1368 27.5342 12.5013 27.2888C12.8724 27.0378 13.2504 26.8148 13.6389 26.6119C13.8321 26.5125 13.9224 26.2448 13.8402 26.011C13.7577 25.7773 13.5362 25.6681 13.343 25.7675C12.9318 25.9788 12.5275 26.2177 12.1333 26.4864C11.7518 26.7444 11.3738 27.028 11.0081 27.3378L11.0062 27.3415C10.8384 27.4712 10.649 27.4293 10.5024 27.2986C10.4337 27.2361 10.3728 27.1554 10.3246 27.064C10.279 26.9744 10.249 26.876 10.2374 26.771C10.2131 26.5093 10.3238 26.2037 10.6675 25.9537ZM12.3231 19.8352L12.332 19.832C13.9289 19.1327 15.5949 18.7151 17.2741 18.5845C18.9605 18.4543 20.6628 18.613 22.3265 19.0627C22.6212 19.1443 22.9267 19.2372 23.2453 19.3431C23.5593 19.4513 23.8645 19.5623 24.1511 19.6804C24.3501 19.7611 24.5638 19.6328 24.6336 19.3939C24.7004 19.1532 24.5943 18.8947 24.3968 18.8103C24.0739 18.6783 23.7568 18.5593 23.4517 18.4571C23.1466 18.3554 22.828 18.2584 22.492 18.1646C20.7562 17.6963 18.9837 17.5302 17.2286 17.6678C15.4785 17.804 13.7418 18.2416 12.0747 18.9703C12.0654 18.9736 12.0608 18.9755 12.0515 18.9787C11.3923 19.2824 11.1095 19.8684 11.0891 20.4599C11.0818 20.6964 11.1153 20.9274 11.1859 21.1443C11.2565 21.3612 11.3622 21.559 11.4961 21.7191C11.5065 21.7303 11.5138 21.7396 11.5242 21.7508C11.8637 22.1352 12.3574 22.3069 12.9052 22.0298C13.4448 21.7886 13.9957 21.5833 14.5519 21.4181C15.1101 21.2497 15.6794 21.1163 16.2619 21.0239C16.469 20.989 16.6164 20.7576 16.5875 20.507C16.5589 20.256 16.3676 20.0783 16.1601 20.1128C15.5672 20.2127 14.9685 20.3508 14.371 20.5308C13.787 20.7062 13.213 20.9204 12.646 21.1714C12.6367 21.1746 12.6232 21.1798 12.6124 21.1868C12.3883 21.3039 12.1858 21.2395 12.0504 21.0925C12.0457 21.0851 12.0384 21.0757 12.0322 21.072C11.9713 21.0001 11.9231 20.9092 11.8911 20.8145C11.861 20.716 11.8448 20.6129 11.8482 20.508C11.8594 20.2453 11.9964 19.9845 12.3231 19.8352ZM11.5076 14.3406C10.8125 14.6028 10.4711 15.1467 10.3982 15.7093C10.3678 15.9547 10.3859 16.2034 10.4515 16.4315C10.5144 16.6573 10.6227 16.8663 10.7655 17.0408C11.1177 17.4663 11.6808 17.6818 12.3381 17.4L12.3428 17.3986C13.4421 16.9671 14.565 16.6578 15.6979 16.466C16.8625 16.272 18.0436 16.1992 19.2279 16.2594C19.4389 16.2687 19.6128 16.0732 19.6236 15.8199C19.6313 15.5643 19.4697 15.3543 19.2603 15.3408C18.0378 15.2801 16.81 15.3548 15.5946 15.5591C14.4161 15.7583 13.2489 16.0812 12.1098 16.5244C12.1005 16.5276 12.0959 16.5295 12.0866 16.5328L12.082 16.5346L12.0361 16.5519C11.7194 16.6699 11.4613 16.5747 11.3082 16.3886C11.2473 16.3172 11.2017 16.2277 11.1747 16.1311C11.1489 16.0406 11.1389 15.9407 11.1508 15.8512C11.1813 15.6058 11.3622 15.3585 11.7406 15.2148L11.7449 15.213C12.1584 15.0497 12.5808 14.9013 13.0074 14.7693C13.4356 14.634 13.8661 14.5193 14.2908 14.4185C14.4967 14.369 14.6318 14.1302 14.5909 13.8806C14.55 13.6315 14.3525 13.4682 14.1465 13.5176C13.6959 13.6245 13.2531 13.7411 12.8157 13.8801C12.3798 14.0154 11.9439 14.1689 11.5076 14.3406ZM33.1222 32.5964C33.1249 32.6076 33.1307 32.6207 33.1365 32.6337C33.3761 33.2374 33.3683 33.6508 33.2349 33.877C33.1909 33.9512 33.1369 34.0048 33.0736 34.0436C33.0061 34.0842 32.9251 34.1019 32.8445 34.1019C32.6154 34.0991 32.3735 33.94 32.235 33.6144C31.5928 31.6373 30.6736 29.8272 29.5279 28.2629C28.3792 26.6968 27.0025 25.3705 25.4529 24.3614C25.2666 24.242 25.0367 24.3278 24.9399 24.5494C24.8415 24.7748 24.9094 25.0505 25.0957 25.1694C26.5643 26.1267 27.8677 27.3831 28.9616 28.8727C30.0525 30.3599 30.9262 32.0805 31.5342 33.961C31.5399 33.9834 31.55 34.0039 31.5573 34.0226C31.835 34.6883 32.3504 35.013 32.8399 35.0191C33.0358 35.0186 33.2299 34.9705 33.405 34.8688C33.5848 34.7653 33.7456 34.6081 33.8636 34.4C34.1367 33.9237 34.2054 33.1866 33.8235 32.2316C33.4656 31.2123 33.0416 30.2396 32.5602 29.3182C32.0715 28.3875 31.5195 27.5048 30.9116 26.6796C30.7708 26.492 30.5324 26.4743 30.3773 26.6446C30.2222 26.8148 30.2076 27.1032 30.3484 27.2912C30.9251 28.0731 31.452 28.9165 31.9218 29.8118C32.3793 30.6996 32.7843 31.6275 33.1222 32.5964ZM37.9787 32.5731C37.669 31.4082 37.2917 30.2839 36.8562 29.2058C36.4115 28.1127 35.9007 27.0565 35.3252 26.0521C35.206 25.8408 34.9696 25.7922 34.7998 25.9345C34.6286 26.0805 34.585 26.3642 34.703 26.5699C35.2519 27.5296 35.7422 28.5447 36.1765 29.6084C36.6012 30.651 36.9623 31.7324 37.2562 32.8455C37.2589 32.8656 37.2663 32.8843 37.2705 32.9011C37.4468 33.4553 37.402 33.8308 37.2508 34.0366C37.1991 34.1103 37.1343 34.1621 37.061 34.1891C36.9843 34.2241 36.899 34.2344 36.8157 34.2232C36.5912 34.1915 36.3683 33.9979 36.2568 33.6288L36.2537 33.6176C36.1704 33.2808 36.0824 32.9547 35.9864 32.6379C35.8907 32.3118 35.7873 31.9853 35.684 31.6681C35.6045 31.4362 35.3815 31.3219 35.1898 31.4175C34.995 31.5118 34.9036 31.7828 34.9827 32.0151C35.0864 32.323 35.1856 32.6328 35.2755 32.9459C35.3684 33.2608 35.4537 33.5757 35.5327 33.8864C35.537 33.9031 35.5412 33.9199 35.5474 33.933C35.7707 34.6706 36.2452 35.0624 36.7301 35.1306C36.9318 35.1618 37.1359 35.1343 37.3214 35.0531C37.5112 34.9701 37.6871 34.8315 37.8244 34.6402C38.1427 34.2022 38.2746 33.4963 37.9787 32.5731ZM41.3759 30.366L41.3702 30.3529C41.2703 30.01 41.1727 29.6877 41.0704 29.3854C40.9597 29.0495 40.8475 28.7173 40.7302 28.3964C40.6465 28.1659 40.4205 28.0586 40.2299 28.1603C40.0397 28.2615 39.951 28.5349 40.0347 28.7649C40.152 29.0863 40.2585 29.4054 40.3618 29.7227C40.4668 30.0455 40.5643 30.3585 40.6531 30.6571C40.6558 30.6772 40.6631 30.6958 40.6673 30.7126C40.9007 31.4007 40.866 31.8761 40.7048 32.1308C40.6562 32.2069 40.5956 32.2657 40.5281 32.2969C40.459 32.3319 40.383 32.3389 40.3044 32.3258C40.086 32.2885 39.8608 32.0749 39.7269 31.6592L39.7257 31.6536C39.1695 29.6107 38.4165 27.6751 37.4942 25.872C36.5661 24.0563 35.4622 22.3792 34.2073 20.8798C34.0584 20.7011 33.8201 20.702 33.6723 20.8817C33.5246 21.0617 33.525 21.35 33.6739 21.5287C34.8839 22.981 35.9524 24.5984 36.8485 26.3563C37.7369 28.0959 38.4636 29.9685 39.0029 31.9447C39.0071 31.9615 39.0098 31.9722 39.0156 31.9853C39.2567 32.7532 39.7277 33.1609 40.1975 33.2384C40.405 33.2733 40.6157 33.2407 40.8058 33.1483C40.996 33.0559 41.1692 32.8973 41.3038 32.686C41.6213 32.1962 41.7289 31.4049 41.3759 30.366ZM15.5772 8.60798C14.8856 8.68683 14.4316 9.14495 14.2422 9.68378C14.165 9.90398 14.1303 10.1419 14.1426 10.3775C14.155 10.6136 14.2144 10.8468 14.3247 11.0516C14.5681 11.5144 15.0468 11.8438 15.7681 11.812C15.7863 11.8144 15.8059 11.813 15.8256 11.8116L15.8426 11.8083L15.8592 11.805C15.8715 11.8036 15.8866 11.8041 15.9005 11.799C16.8224 11.6772 17.752 11.6254 18.6882 11.638C19.6394 11.6511 20.5938 11.736 21.5423 11.8867C22.3817 12.0238 23.2172 12.2137 24.038 12.4549C24.8651 12.6998 25.6755 12.9998 26.4701 13.345C26.6661 13.4332 26.8856 13.3086 26.9554 13.0698C27.0283 12.8328 26.9253 12.5669 26.7278 12.4824C25.9035 12.1181 25.0668 11.8158 24.2174 11.5611C23.3696 11.3119 22.5097 11.1155 21.6414 10.9742C20.6655 10.8151 19.6807 10.7292 18.6917 10.7153C17.7358 10.7036 16.7742 10.7586 15.8156 10.8846L15.8036 10.8865C15.3515 10.9271 15.0808 10.7726 14.9646 10.5548C14.9249 10.4783 14.9037 10.3948 14.8979 10.3122C14.8933 10.2254 14.9072 10.1321 14.9392 10.0411C15.0291 9.78268 15.269 9.55922 15.6451 9.5163C15.6528 9.5163 15.6605 9.51676 15.6698 9.51303C16.1099 9.45518 16.5516 9.41226 16.9944 9.38381C17.4492 9.35395 17.892 9.33482 18.3221 9.33576C18.5304 9.33389 18.6998 9.13095 18.7002 8.8753C18.6986 8.62338 18.5277 8.41671 18.3194 8.41811C17.85 8.41998 17.3937 8.43537 16.9539 8.4657C16.4987 8.49555 16.0451 8.53987 15.5907 8.60285L15.5772 8.60798ZM42.2855 23.9056C42.2913 23.9187 42.2971 23.9318 42.3029 23.9448C42.5513 24.4057 42.5729 24.7864 42.4726 25.043C42.4375 25.1321 42.3843 25.21 42.3226 25.2632C42.2605 25.3169 42.1887 25.3495 42.1092 25.364C41.9079 25.3934 41.6699 25.2786 41.46 24.9586C40.4428 22.7043 39.2065 20.6176 37.7916 18.7459C36.3602 16.8505 34.7424 15.1701 32.971 13.7448C32.7975 13.6058 32.5606 13.6641 32.4457 13.8741C32.3307 14.084 32.3789 14.3704 32.5525 14.5095C34.2702 15.8908 35.8402 17.5218 37.23 19.3631C38.6137 21.1914 39.816 23.224 40.8039 25.4223C40.8128 25.4461 40.8259 25.4685 40.8394 25.4913C41.2363 26.1216 41.7505 26.3432 42.2034 26.2746C42.4059 26.2415 42.5991 26.1515 42.7615 26.0087C42.9266 25.8678 43.0593 25.6784 43.1519 25.4493C43.359 24.9315 43.3494 24.2233 42.9459 23.4587C41.6232 20.619 39.9738 18.0354 38.0644 15.7831C36.1441 13.519 33.9628 11.59 31.5747 10.0635C30.7364 9.52749 29.8731 9.04091 28.9859 8.60845C28.1034 8.17459 27.2 7.79671 26.2865 7.47761C26.0871 7.40623 25.8761 7.54572 25.8155 7.79018C25.7561 8.03137 25.8715 8.28655 26.074 8.3598C26.9631 8.67283 27.8395 9.04231 28.7009 9.46312C29.5518 9.88158 30.3943 10.3546 31.2232 10.8846C33.5485 12.3709 35.6732 14.2454 37.5351 16.4395C39.3929 18.626 40.9964 21.1387 42.2855 23.9056ZM24.2861 7.80744C24.4886 7.86249 24.6923 7.70434 24.7378 7.45941C24.7837 7.21449 24.6529 6.96817 24.45 6.91312C24.1673 6.83894 23.883 6.76896 23.5998 6.70412C23.2955 6.63507 23.0112 6.57396 22.7447 6.52451C22.5387 6.48579 22.3408 6.657 22.3088 6.90612C22.2768 7.15524 22.4183 7.3941 22.6243 7.43282C22.9225 7.4888 23.1983 7.54432 23.4571 7.60263C23.7368 7.66561 24.0107 7.73373 24.2861 7.80744ZM30.7233 13.1635C30.9081 13.2862 31.1361 13.2041 31.2375 12.9807C31.339 12.7572 31.2711 12.4815 31.0863 12.3588C29.5835 11.3567 28.0073 10.5394 26.3822 9.91424C24.754 9.28724 23.0764 8.85151 21.3753 8.61965C21.248 8.60285 21.0995 8.58233 20.9313 8.5632C20.7446 8.54174 20.5972 8.52634 20.4865 8.51608C20.2775 8.49369 20.0942 8.68356 20.0761 8.93688C20.0576 9.1902 20.2146 9.41133 20.424 9.43372C20.6046 9.45145 20.7484 9.46451 20.8576 9.47851C20.9822 9.49297 21.1245 9.50977 21.2869 9.53449C22.9441 9.76169 24.5746 10.1811 26.15 10.7885C27.73 11.394 29.261 12.1913 30.7233 13.1635ZM39.0993 26.4379C39.1988 26.6595 39.433 26.7393 39.6127 26.6175C39.796 26.4976 39.865 26.2163 39.7612 25.9966C38.5307 23.281 36.9534 20.8224 35.0972 18.7109C33.2549 16.613 31.1353 14.8584 28.8058 13.5321C28.6149 13.4239 28.3911 13.5223 28.3001 13.7481C28.2106 13.979 28.2924 14.2496 28.4787 14.3592C30.7391 15.651 32.7913 17.3487 34.5773 19.3827C36.3783 21.4261 37.9054 23.8063 39.0993 26.4379ZM32.053 19.7676C32.2173 19.9286 32.4549 19.8945 32.5861 19.6995C32.7191 19.5008 32.691 19.2134 32.5297 19.0548C32.3523 18.8807 32.1594 18.6969 31.9565 18.5113C31.7695 18.341 31.5723 18.1684 31.3656 17.9897C31.1951 17.8437 30.9571 17.8959 30.8363 18.1021C30.7152 18.3083 30.7584 18.5962 30.9293 18.7427C31.1149 18.8985 31.3015 19.0688 31.4975 19.2451C31.6738 19.4042 31.8589 19.5787 32.053 19.7676ZM29.1086 17.3417C29.2918 17.4681 29.5225 17.3879 29.6255 17.17C29.73 16.9489 29.6637 16.6694 29.4836 16.5449C28.3132 15.7411 27.0854 15.0679 25.8263 14.537C24.5611 14.0024 23.2581 13.6063 21.9284 13.3516C21.003 13.1733 20.0734 13.0674 19.1438 13.0311C18.2099 12.9961 17.2775 13.0278 16.3468 13.1346C16.1365 13.1584 15.9849 13.3819 16.0046 13.6361C16.0239 13.8904 16.209 14.0737 16.4193 14.0504C17.3165 13.9496 18.2184 13.9174 19.1191 13.9492C20.0182 13.9851 20.9193 14.0868 21.8096 14.2561C23.0911 14.4992 24.3513 14.8864 25.5775 15.4052C26.7957 15.9235 27.9846 16.5719 29.1086 17.3417ZM33.341 24.4538C33.4771 24.6427 33.7171 24.6661 33.8752 24.4976C34.0318 24.333 34.0507 24.0428 33.9115 23.8515C33.0833 22.7039 32.1699 21.6458 31.1785 20.696C30.1929 19.7499 29.1352 18.9157 28.0177 18.2015C27.0839 17.6044 26.1083 17.0926 25.0992 16.675C24.1565 16.2818 23.1929 15.9725 22.2135 15.7509L22.2058 15.7504C22.0862 15.7252 21.9817 15.7005 21.8941 15.6814C21.7699 15.6576 21.6654 15.6328 21.582 15.6212C21.376 15.5825 21.1782 15.7537 21.1461 16.0028C21.1141 16.2519 21.2557 16.4912 21.4617 16.53C21.5828 16.5514 21.6843 16.5747 21.7629 16.5878C21.8721 16.6111 21.9647 16.6279 22.0449 16.6471L22.0476 16.6489L22.0615 16.6527C23.0089 16.8682 23.9397 17.1654 24.8473 17.5414C25.8067 17.9407 26.7475 18.4352 27.6578 19.017C28.7422 19.7102 29.7621 20.5159 30.7044 21.42C31.6649 22.3269 32.5456 23.3453 33.341 24.4538ZM34.0538 29.6644C34.156 29.8878 34.3871 29.9657 34.5688 29.8402C34.7535 29.7166 34.818 29.4367 34.7142 29.217C34.1097 27.9009 33.4031 26.6684 32.6003 25.5324C31.7965 24.3913 30.8977 23.3519 29.9256 22.4282C29.7597 22.2714 29.5221 22.305 29.3952 22.5075C29.2652 22.7081 29.2934 22.9955 29.4608 23.1489C30.3954 24.0349 31.2541 25.0346 32.0256 26.1272C32.7909 27.2161 33.4725 28.4001 34.0538 29.6644ZM27.7365 21.7032C27.9167 21.8366 28.1473 21.7657 28.2581 21.5483C28.3684 21.3304 28.3097 21.0515 28.13 20.918C27.8538 20.7137 27.5645 20.5145 27.2625 20.3172C26.9666 20.1231 26.6692 19.9421 26.3714 19.7704C26.1805 19.6626 25.9567 19.7611 25.8657 19.9864C25.7762 20.2173 25.858 20.4884 26.0443 20.598C26.339 20.7678 26.6248 20.9409 26.9026 21.1233C27.1772 21.3034 27.4549 21.4951 27.7365 21.7032ZM28.8374 25.5072C28.9956 25.6733 29.2363 25.6504 29.3705 25.4573C29.5079 25.266 29.489 24.9754 29.3293 24.8125C28.8567 24.3199 28.3591 23.858 27.8442 23.4358C27.3276 23.008 26.7911 22.6185 26.241 22.2672C25.6944 21.9173 25.132 21.6043 24.5519 21.3314C23.9763 21.0561 23.3865 20.8233 22.7852 20.6246C22.0661 20.3881 21.3398 20.2122 20.6138 20.097C19.8805 19.9813 19.1414 19.9225 18.4024 19.9244C18.1914 19.9239 18.0216 20.1268 18.0216 20.3825C18.0213 20.6381 18.1894 20.8429 18.4004 20.8434C19.1044 20.8425 19.8099 20.8984 20.5116 21.0076C21.2117 21.1205 21.9049 21.2847 22.5861 21.511C23.1543 21.6976 23.7198 21.9243 24.2714 22.1837C24.8184 22.445 25.3569 22.7431 25.8854 23.0808C26.4173 23.4209 26.9299 23.7951 27.4168 24.1944C27.9151 24.6012 28.3888 25.0388 28.8374 25.5072ZM17.3956 25.4904C17.6043 25.4703 17.759 25.2487 17.7424 24.9964C17.7258 24.744 17.5426 24.5569 17.3339 24.577C17.0519 24.6059 16.7641 24.6497 16.4756 24.7024C16.1874 24.7552 15.9051 24.8209 15.627 24.8942C15.4225 24.9492 15.2933 25.1923 15.3388 25.4395C15.3843 25.6873 15.5849 25.8436 15.7897 25.7885C16.0601 25.7148 16.324 25.656 16.5909 25.608C16.8521 25.5566 17.1217 25.5198 17.3956 25.4904Z" fill="white"/>
</g>
</g>
</g>
</svg>
